<svg xmlns="http://www.w3.org/2000/svg" viewBox="0 0 373 149"><title>Asset 41</title><g id="Layer_2" data-name="Layer 2"><g id="Layer_1-2" data-name="Layer 1"><path d="M237.76,140.6a33.64,33.64,0,0,0,5-17.29,74.5,74.5,0,1,0-112.52,0,33.64,33.64,0,0,0,4.95,17.22c-9.39.64-15.74,1.85-15.74,3.24,0,2.06,13.87,3.73,31,3.73,6.75,0,13-.26,18.07-.7a74.77,74.77,0,0,0,18,2.2,75.56,75.56,0,0,0,8.7-.52c6.26.33,13.39.52,21,.52,24.75,0,44.82-2,44.82-4.48,0-1.69-9.39-3.16-23.24-3.92M186.5,6.21a68.23,68.23,0,0,1,55.59,107.88c-2.11-13.59-8.18-27.17-5.89-40.52a37.1,37.1,0,0,0,2-3.35c.52-1-.84-1.44-2.5-2.57-10.5,8.24-27.47,7.48-37,0-1.67,1.13-3,1.57-2.51,2.57,5.47,10.32,13.84,15.19,22.07,14.72-1,15.83,10,30.17,6.47,46.1a68.17,68.17,0,0,1-76.52,0c-3.54-15.93,7.52-30.27,6.47-46.1,8.23.47,16.6-4.4,22.08-14.72.51-1-.85-1.44-2.51-2.57-10.49,8.24-27.47,7.48-37,0-1.66,1.13-3,1.57-2.5,2.57a38.74,38.74,0,0,0,2,3.36c2.29,13.34-3.78,26.91-5.89,40.51A68.23,68.23,0,0,1,186.5,6.21Z" fill="#08070a"/><path d="M51.55,110.23q-7,0-27.59,2.41L0,96.37Q0,91.54,18.93,57.8q19.13-33.94,30-45.8l33.22,3.21q-4.83,37.77-6,72.92L89,89.34l-2.82,21.09H75.71q0,22.91,1,38.57l-24.17-2Q51.55,132.72,51.55,110.23ZM30,89.34a157.11,157.11,0,0,1,21.75-1.41q1.41-26.51,4.83-49.61Q39.47,67.84,30,89.34Z" fill="#55A3F0"/><path d="M335.55,110.23q-7.05,0-27.59,2.41L284,96.37q0-4.83,18.93-38.57,19.13-33.94,30-45.8l33.22,3.21q-4.83,37.77-6,72.92L373,89.34l-2.82,21.09H359.71q0,22.91,1,38.57l-24.17-2Q335.54,132.72,335.55,110.23ZM314,89.34a157.11,157.11,0,0,1,21.75-1.41q1.41-26.51,4.83-49.61Q323.47,67.84,314,89.34Z" fill="#55A3F0"/><path d="M211,115s-.38-.14-1-.43c-.32-.14-.71-.34-1.15-.52l-1.47-.62c-.54-.19-1.12-.45-1.75-.66s-1.26-.44-1.95-.6l-2.08-.47a19.26,19.26,0,0,0-2.16-.19l-.54,0-.54,0a9.45,9.45,0,0,0-1.07.07l-1.08.14c-.34.07-.68.16-1,.22s-.65.2-1,.27a6.46,6.46,0,0,0-.94.31l-.89.33c-.28.11-.54.25-.81.36-.54.22-1,.47-1.44.68l-.61.31-.5.28c-.61.34-1,.52-1,.52s.23-.34.68-.91l.38-.48.5-.5.57-.56a4.81,4.81,0,0,1,.69-.56c.24-.19.5-.4.77-.6l.89-.56a7.11,7.11,0,0,1,1-.53,8.6,8.6,0,0,1,1.08-.47l1.16-.39a12,12,0,0,1,1.22-.26,9,9,0,0,1,1.26-.13l.64,0h.64a15.22,15.22,0,0,1,2.52.31,14.52,14.52,0,0,1,2.31.76,15.23,15.23,0,0,1,2,1,19.36,19.36,0,0,1,1.67,1.12c.51.36.92.76,1.31,1.09a11.16,11.16,0,0,1,.91.91C210.74,114.7,211,115,211,115Z" fill="#55A3F0"/></g></g></svg>